<svg xmlns="http://www.w3.org/2000/svg" width="15" height="35" viewBox="0 0 15 35">
  <defs>
    <style>
      .cls-1 {
        fill: #176b6a;
        fill-rule: evenodd;
      }
    </style>
  </defs>
  <path id="icon" class="cls-1" d="M1375.31,4883.83l9.49,14.64-9.46,14.67a2.136,2.136,0,0,0-.34,1.21,1.471,1.471,0,0,0,1.05,1.65h0.01a0.876,0.876,0,0,0,.67-0.36l12.87-15.87a2.14,2.14,0,0,0,.4-1.3,2.162,2.162,0,0,0-.4-1.3l-12.88-15.81a0.817,0.817,0,0,0-1.45.2A2.348,2.348,0,0,0,1375.31,4883.83Z" transform="translate(-1375 -4881)"/>
</svg>
