<svg xmlns="http://www.w3.org/2000/svg" width="35" height="15" viewBox="0 0 70 30">
  <defs>
    <style>
      .cls-1 {
        fill: #fff;
        fill-rule: evenodd;
      }
    </style>
  </defs>
  <path id="icon" class="cls-1" d="M404.348,8836.37l-29.3-18.98-29.331,18.94a4.348,4.348,0,0,1-2.411.67c-1.811,0-3.28-.93-3.309-2.09,0-.02,0-0.03,0-0.04a1.726,1.726,0,0,1,.718-1.32l31.748-25.75a4.254,4.254,0,0,1,2.593-.8,4.187,4.187,0,0,1,2.592.81l31.638,25.74c1.087,0.89.912,2.16-.4,2.91A4.721,4.721,0,0,1,404.348,8836.37Z" transform="translate(-340 -8807)"/>
</svg>
